# Blender v2.80 (sub 75) OBJ File: 'Medpack.blend'
# www.blender.org
g Medpack_Base
v 1.354575 -0.908689 -2.450156
v 1.354575 -0.908689 -1.547017
v -1.354843 -0.908689 -1.547017
v -1.354843 -0.908689 -2.450156
v -1.354843 -0.998013 -2.450156
v -1.354843 -0.998013 -1.547017
v 1.354575 -0.998013 -1.547017
v 1.354575 -0.998013 -2.450156
v -0.451704 -0.998013 -0.643877
v 0.451435 -0.998013 -0.643877
v 0.451435 -0.998013 -3.353296
v -0.451704 -0.998013 -3.353296
v 0.451435 -0.998013 -1.547017
v -0.451704 -0.998013 -1.547017
v 0.451435 -0.998013 -2.450156
v -0.451704 -0.998013 -2.450156
v -0.451704 -0.908689 -1.547017
v -0.451704 -0.908689 -2.450156
v -0.451704 -0.908689 -0.643877
v 0.451435 -0.908689 -0.643877
v 0.451435 -0.908689 -3.353296
v -0.451704 -0.908689 -3.353296
v 0.451435 -0.908689 -1.547017
v 0.451435 -0.908689 -2.450156
v 2.581238 -0.791433 -3.997169
v 2.906116 -0.791433 -3.799407
v 2.906116 -0.791433 -0.197766
v 2.581238 -0.791433 -0.000004
v -2.906384 -0.791433 -3.799407
v -2.581506 -0.791433 -3.997169
v -2.581506 -0.791433 -0.000004
v -2.906384 -0.791433 -0.197766
v 2.723798 -0.908689 -0.323377
v 2.398627 -0.908689 -0.125382
v -2.398895 -0.908689 -0.125382
v -2.724066 -0.908689 -0.323377
v 2.398627 -0.908689 -3.871791
v 2.723798 -0.908689 -3.673796
v -2.724066 -0.908689 -3.673796
v -2.398895 -0.908689 -3.871791
v 2.906116 0.791432 -3.799407
v 2.581238 0.791432 -3.997169
v 2.581238 0.791433 -0.000004
v 2.906116 0.791433 -0.197766
v -2.581506 0.791432 -3.997169
v -2.906384 0.791432 -3.799407
v -2.906384 0.791433 -0.197766
v -2.581506 0.791433 -0.000004
v -2.724066 0.908689 -0.323377
v 2.723798 0.908689 -3.673796
v -2.724066 0.908689 -3.673796
v 1.354575 1.011779 -2.450156
v 1.354575 1.011779 -1.547017
v -1.354843 1.011779 -1.547017
v -1.354843 1.011779 -2.450156
v -1.354843 0.922455 -2.450156
v -1.354843 0.922455 -1.547017
v 1.354575 0.922455 -1.547017
v 1.354575 0.922455 -2.450156
v -0.451704 0.922455 -0.643878
v 0.451435 0.922455 -0.643878
v 0.451435 0.922455 -3.353296
v -0.451704 0.922455 -3.353296
v 0.451435 0.922455 -1.547017
v -0.451704 0.922455 -1.547017
v 0.451435 0.922455 -2.450156
v -0.451704 0.922455 -2.450156
v -0.451704 1.011779 -1.547017
v -0.451704 1.011779 -2.450156
v -0.451704 1.011779 -0.643878
v 0.451435 1.011779 -0.643878
v 0.451435 1.011779 -3.353296
v -0.451704 1.011779 -3.353296
v 0.451435 1.011779 -1.547017
v 0.451435 1.011779 -2.450156
v -1.218111 0.225883 -3.997169
v -1.218111 0.225883 -4.762963
v -1.218111 -0.225883 -3.997169
v -1.218111 -0.225883 -4.762963
v -1.218111 -0.225883 -4.705761
v -1.218111 -0.225883 -4.267821
v -1.218111 0.225883 -4.705761
v -1.218111 0.225883 -4.267821
v 1.217842 0.225883 -3.997169
v 1.217842 0.225883 -4.762963
v 1.217842 -0.225883 -3.997169
v 1.217842 -0.225883 -4.762963
v 1.217842 -0.225883 -4.705761
v 1.217842 -0.225883 -4.267821
v 1.217842 0.225883 -4.705761
v 1.217842 0.225883 -4.267821
v -1.561370 0.225883 -3.997169
v -1.669876 0.117377 -3.997169
v -1.669876 0.117377 -4.762963
v -1.561370 0.225883 -4.762963
v -1.669876 -0.117377 -3.997169
v -1.561370 -0.225883 -3.997169
v -1.561370 -0.225883 -4.762963
v -1.669876 -0.117377 -4.762963
v -1.561370 0.225883 -4.267821
v -1.669876 0.117377 -4.267821
v -1.669876 -0.117377 -4.267821
v -1.561370 -0.225883 -4.267821
v -1.669876 0.117377 -4.705761
v -1.561370 0.225883 -4.705761
v -1.669876 -0.117377 -4.705761
v -1.561370 -0.225883 -4.705761
v 1.669607 0.117377 -3.997169
v 1.561102 0.225883 -3.997169
v 1.561102 0.225883 -4.762963
v 1.669607 0.117377 -4.762963
v 1.561102 -0.225883 -3.997169
v 1.669607 -0.117377 -3.997169
v 1.669607 -0.117377 -4.762963
v 1.561102 -0.225883 -4.762963
v 1.669607 0.117377 -4.267821
v 1.561102 0.225883 -4.267821
v 1.561102 -0.225883 -4.267821
v 1.669607 -0.117377 -4.267821
v 1.561102 0.225883 -4.705761
v 1.669607 0.117377 -4.705761
v 1.561102 -0.225883 -4.705761
v 1.669607 -0.117377 -4.705761
v -1.093209 -0.143357 -4.397712
v -1.093209 -0.095283 -4.349638
v -1.128406 -0.166612 -4.326582
v -1.093209 0.095283 -4.349638
v -1.093209 0.143357 -4.397712
v -1.128406 0.166612 -4.326582
v -1.093209 -0.095283 -4.623945
v -1.093209 -0.143357 -4.575871
v -1.128406 -0.166612 -4.647000
v -1.093209 0.143357 -4.575871
v -1.093209 0.095283 -4.623945
v -1.128406 0.166612 -4.647000
v 1.092941 -0.095283 -4.349638
v 1.092941 -0.143357 -4.397712
v 1.128137 -0.166612 -4.326582
v 1.092941 0.143357 -4.397712
v 1.092941 0.095283 -4.349638
v 1.128137 0.166612 -4.326582
v 1.092941 -0.143357 -4.575871
v 1.092941 -0.095283 -4.623945
v 1.128137 -0.166612 -4.647000
v 1.092941 0.095283 -4.623945
v 1.092941 0.143357 -4.575871
v 1.128137 0.166612 -4.647000
v -2.398895 0.908689 -0.125382
v 2.398627 0.908689 -0.125382
v 2.723798 0.908689 -0.323377
v 2.398627 0.908689 -3.871791
v -2.398895 0.908689 -3.871791
vt 0.102677 0.922728
vt 0.153897 0.871508
vt 0.205117 0.922728
vt 0.153897 0.973948
vt 0.000237 0.820288
vt 0.051457 0.769068
vt 0.102677 0.820288
vt 0.051457 0.871508
vt 0.000237 0.922728
vt 0.051457 0.973948
vt 0.153897 0.769068
vt 0.205117 0.820288
vt 0.992598 0.145109
vt 0.992598 0.072673
vt 0.999763 0.072673
vt 0.999763 0.145109
vt 0.992598 0.507290
vt 0.992598 0.434854
vt 0.999762 0.434854
vt 0.999762 0.507290
vt 0.992598 0.217546
vt 0.999762 0.217546
vt 0.992598 0.362418
vt 0.999762 0.362418
vt 0.992598 0.797032
vt 0.992598 0.724597
vt 0.999762 0.724597
vt 0.999763 0.797032
vt 0.992598 0.289982
vt 0.999762 0.289982
vt 0.992598 0.869468
vt 0.999763 0.869468
vt 0.992598 0.652161
vt 0.999762 0.652161
vt 0.992598 0.579725
vt 0.999762 0.579725
vt 0.992598 0.000237
vt 0.999762 0.000237
vt 0.547540 0.712054
vt 0.848019 0.712054
vt 0.832139 0.738135
vt 0.563420 0.738134
vt 0.140558 0.185199
vt 0.152875 0.198796
vt 0.161282 0.513900
vt 0.149601 0.528483
vt 0.168982 0.551620
vt 0.177117 0.535150
vt 0.386821 0.525219
vt 0.395286 0.539071
vt 0.492100 0.039047
vt 0.061513 0.053154
vt 0.044152 0.020924
vt 0.513339 0.000237
vt 0.958403 0.000237
vt 0.958403 0.300716
vt 0.573620 0.300716
vt 0.573620 0.000237
vt 0.523513 0.640248
vt 0.525295 0.064941
vt 0.547065 0.073121
vt 0.547065 0.632910
vt 0.052620 0.667721
vt 0.491581 0.664562
vt 0.509309 0.698474
vt 0.030723 0.706093
vt 0.412541 0.517123
vt 0.400095 0.503477
vt 0.387662 0.205215
vt 0.398699 0.191148
vt 0.380452 0.169771
vt 0.372533 0.184906
vt 0.166391 0.177987
vt 0.158251 0.163356
vt 0.032476 0.076440
vt 0.021512 0.641701
vt 0.000237 0.633068
vt 0.009235 0.083716
vt 0.410471 0.922728
vt 0.359251 0.973948
vt 0.308032 0.922728
vt 0.359251 0.871508
vt 0.256812 0.871508
vt 0.308032 0.820288
vt 0.410471 0.820288
vt 0.359251 0.769068
vt 0.256812 0.973948
vt 0.205592 0.922728
vt 0.205592 0.820288
vt 0.256812 0.769068
vt 0.992123 0.797032
vt 0.992123 0.869466
vt 0.984959 0.869466
vt 0.984959 0.797032
vt 0.992123 0.434857
vt 0.992123 0.507293
vt 0.984958 0.507293
vt 0.984958 0.434857
vt 0.992123 0.724598
vt 0.984959 0.724598
vt 0.992123 0.579729
vt 0.984959 0.579729
vt 0.992123 0.145112
vt 0.992123 0.217549
vt 0.984958 0.217549
vt 0.984959 0.145112
vt 0.992123 0.652164
vt 0.984959 0.652164
vt 0.992123 0.072675
vt 0.984959 0.072675
vt 0.992123 0.289986
vt 0.984958 0.289986
vt 0.992123 0.362422
vt 0.984958 0.362422
vt 0.992123 0.000237
vt 0.984959 0.000237
vt 0.583774 0.925504
vt 0.583774 0.953035
vt 0.547540 0.953035
vt 0.547540 0.925504
vt 0.682279 0.885317
vt 0.682279 0.920442
vt 0.654748 0.920442
vt 0.654748 0.885317
vt 0.583774 0.920442
vt 0.583774 0.925029
vt 0.547540 0.925029
vt 0.547540 0.920442
vt 0.642440 0.920442
vt 0.642440 0.925029
vt 0.623612 0.925029
vt 0.623612 0.920442
vt 0.682279 0.863609
vt 0.654748 0.863609
vt 0.611305 0.863609
vt 0.611305 0.885317
vt 0.583774 0.885317
vt 0.583774 0.863609
vt 0.682279 0.925029
vt 0.654748 0.925029
vt 0.547540 0.885317
vt 0.547540 0.863609
vt 0.611305 0.920442
vt 0.611305 0.925030
vt 0.642440 0.885317
vt 0.623612 0.885317
vt 0.929405 0.769068
vt 0.929405 0.944408
vt 0.914120 0.944408
vt 0.914120 0.769068
vt 0.722592 0.863609
vt 0.741420 0.863609
vt 0.741420 0.885317
vt 0.722592 0.885317
vt 0.888925 0.769068
vt 0.888925 0.944408
vt 0.873641 0.944408
vt 0.873641 0.769068
vt 0.868188 0.769068
vt 0.868188 0.944408
vt 0.853899 0.944408
vt 0.853899 0.769068
vt 0.501368 0.911131
vt 0.507936 0.907932
vt 0.520126 0.907652
vt 0.526120 0.910701
vt 0.519936 0.863418
vt 0.526082 0.866828
vt 0.501178 0.866069
vt 0.507661 0.863202
vt 0.528613 0.956963
vt 0.492379 0.956963
vt 0.492379 0.929432
vt 0.528613 0.929432
vt 0.682754 0.885317
vt 0.710285 0.885317
vt 0.710285 0.920442
vt 0.682754 0.920442
vt 0.781259 0.920442
vt 0.817492 0.920442
vt 0.817492 0.925029
vt 0.781259 0.925029
vt 0.722592 0.920442
vt 0.741420 0.920442
vt 0.741420 0.925029
vt 0.722592 0.925029
vt 0.682754 0.863609
vt 0.710285 0.863609
vt 0.753728 0.863609
vt 0.781259 0.863609
vt 0.781259 0.885317
vt 0.753728 0.885317
vt 0.710285 0.925029
vt 0.682754 0.925029
vt 0.817492 0.863609
vt 0.817492 0.885317
vt 0.753728 0.920442
vt 0.753728 0.925029
vt 0.526827 0.885640
vt 0.502348 0.884872
vt 0.492913 0.876181
vt 0.535501 0.876138
vt 0.504552 0.859829
vt 0.502499 0.840305
vt 0.505370 0.846684
vt 0.523552 0.847123
vt 0.526943 0.841046
vt 0.523269 0.860320
vt 0.508503 0.843606
vt 0.520534 0.843830
vt 0.492379 0.920049
vt 0.535501 0.920254
vt 0.623612 0.863609
vt 0.642440 0.863609
vt 0.523345 0.904537
vt 0.523533 0.891748
vt 0.520617 0.888559
vt 0.504704 0.904650
vt 0.508597 0.888068
vt 0.505347 0.891219
vt 0.894378 0.769068
vt 0.894378 0.944408
vt 0.848446 0.944408
vt 0.848446 0.769068
vt 0.908667 0.944408
vt 0.908667 0.769068
vt 0.501082 0.920729
vt 0.519910 0.920729
vt 0.575071 0.961738
vt 0.556243 0.961738
vt 0.535595 0.831568
vt 0.535595 0.875580
vt 0.493174 0.831614
vt 0.492379 0.875663
vt 0.547540 0.284836
vt 0.547540 0.016118
vt 0.984483 0.016118
vt 0.984483 0.284836
vt 0.848019 0.327271
vt 0.547540 0.327271
vt 0.832139 0.301191
vt 0.563420 0.301191
vn 0.0000 -1.0000 0.0000
vn 1.0000 0.0000 0.0000
vn 0.0000 0.0000 1.0000
vn 0.0000 0.0000 -1.0000
vn -1.0000 0.0000 0.0000
vn 0.0000 1.0000 -0.0000
vn 0.0000 0.7304 0.6831
vn -0.5409 0.8411 -0.0000
vn 0.5409 -0.8411 0.0000
vn 0.0000 -0.7304 -0.6831
vn -0.5409 -0.8411 0.0000
vn 0.0000 0.7304 -0.6831
vn 0.5409 0.8411 -0.0000
vn 0.0000 -0.7304 0.6831
vn 0.2610 -0.8649 0.4287
vn 0.2610 -0.8649 -0.4287
vn -0.2610 -0.8649 -0.4287
vn -0.2610 -0.8649 0.4287
vn 0.2610 0.8649 0.4287
vn 0.2610 0.8649 -0.4287
vn -0.2610 0.8649 -0.4287
vn -0.2610 0.8649 0.4287
vn 0.5513 -0.8343 0.0000
vn -0.5513 -0.8343 0.0000
vn 0.5513 0.8343 0.0000
vn -0.5479 0.0000 0.8365
vn -0.5479 0.0000 -0.8365
vn -0.5513 0.8343 0.0000
vn 0.5480 0.0000 -0.8365
vn 0.5480 0.0000 0.8365
vn -0.7071 0.7071 0.0000
vn -0.7071 -0.7071 0.0000
vn 0.7071 0.7071 0.0000
vn 0.7071 -0.7071 0.0000
vn 0.8845 -0.3298 0.3298
vn 0.8845 0.3298 0.3298
vn 0.8845 -0.3298 -0.3298
vn 0.8845 0.3298 -0.3298
vn -0.8845 -0.3298 0.3298
vn -0.8845 0.3299 0.3299
vn -0.8845 -0.3298 -0.3298
vn -0.8845 0.3298 -0.3298
vn 0.0000 -0.7071 0.7071
vn 0.0000 0.7071 0.7071
vn 0.0000 0.7071 -0.7071
vn 0.0000 -0.7071 -0.7071
vn -0.5480 0.0000 -0.8365
vn 0.5479 0.0000 -0.8365
vn -0.5480 0.0000 0.8365
vn 0.5479 0.0000 0.8365
vn -0.5200 -0.0000 -0.8542
vn 0.5200 -0.0000 -0.8542
vn 0.5200 0.0000 0.8542
vn -0.5200 0.0000 0.8542
s off
f 13/1/1 15/2/1 8/3/1 7/4/1
f 6/5/1 5/6/1 16/7/1 14/8/1
f 14/8/1 16/7/1 15/2/1 13/1/1
f 9/9/1 14/8/1 13/1/1 10/10/1
f 16/7/1 12/11/1 11/12/1 15/2/1
f 15/13/2 11/14/2 21/15/2 24/16/2
f 9/17/3 10/18/3 20/19/3 19/20/3
f 8/21/4 15/13/4 24/16/4 1/22/4
f 10/18/2 13/23/2 23/24/2 20/19/2
f 16/25/4 5/26/4 4/27/4 18/28/4
f 13/23/3 7/29/3 2/30/3 23/24/3
f 7/29/2 8/21/2 1/22/2 2/30/2
f 12/31/5 16/25/5 18/28/5 22/32/5
f 5/26/5 6/33/5 3/34/5 4/27/5
f 14/35/5 9/17/5 19/20/5 17/36/5
f 6/33/3 14/35/3 17/36/3 3/34/3
f 11/14/4 12/37/4 22/38/4 21/15/4
f 151/39/6 149/40/6 150/41/6 50/42/6
f 43/43/7 149/44/7 148/45/7 48/46/7
f 47/47/8 49/48/8 51/49/8 46/50/8
f 26/51/9 27/52/9 33/53/9 38/54/9
f 35/55/1 40/56/1 37/57/1 34/58/1
f 30/59/10 25/60/10 37/61/10 40/62/10
f 32/63/11 29/64/11 39/65/11 36/66/11
f 45/67/12 152/68/12 151/69/12 42/70/12
f 41/71/13 50/72/13 150/73/13 44/74/13
f 28/75/14 31/76/14 35/77/14 34/78/14
f 28/75/15 34/78/15 33/53/15 27/52/15
f 37/61/16 25/60/16 26/51/16 38/54/16
f 30/59/17 40/62/17 39/65/17 29/64/17
f 35/77/18 31/76/18 32/63/18 36/66/18
f 44/74/19 150/73/19 149/44/19 43/43/19
f 50/72/20 41/71/20 42/70/20 151/69/20
f 46/50/21 51/49/21 152/68/21 45/67/21
f 49/48/22 47/47/22 48/46/22 148/45/22
f 70/79/6 71/80/6 74/81/6 68/82/6
f 68/82/6 74/81/6 75/83/6 69/84/6
f 54/85/6 68/82/6 69/84/6 55/86/6
f 74/81/6 53/87/6 52/88/6 75/83/6
f 69/84/6 75/83/6 72/89/6 73/90/6
f 66/91/2 62/92/2 72/93/2 75/94/2
f 60/95/3 61/96/3 71/97/3 70/98/3
f 59/99/4 66/91/4 75/94/4 52/100/4
f 61/96/2 64/101/2 74/102/2 71/97/2
f 67/103/4 56/104/4 55/105/4 69/106/4
f 64/101/3 58/107/3 53/108/3 74/102/3
f 58/107/2 59/99/2 52/100/2 53/108/2
f 63/109/5 67/103/5 69/106/5 73/110/5
f 56/104/5 57/111/5 54/112/5 55/105/5
f 65/113/5 60/95/5 70/98/5 68/114/5
f 57/111/3 65/113/3 68/114/3 54/112/3
f 62/115/4 63/109/4 73/110/4 72/116/4
f 79/117/4 98/118/4 95/119/4 77/120/4
f 83/121/6 82/122/6 105/123/6 100/124/6
f 80/125/2 79/126/2 77/127/2 82/128/2
f 104/129/5 94/130/5 99/131/5 106/132/5
f 76/133/6 83/121/6 100/124/6 92/134/6
f 97/135/1 103/136/1 81/137/1 78/138/1
f 82/122/6 77/139/6 95/140/6 105/123/6
f 78/138/2 81/137/2 83/141/2 76/142/2
f 107/143/1 98/144/1 79/126/1 80/125/1
f 101/145/5 104/129/5 106/132/5 102/146/5
f 134/147/4 145/148/4 143/149/4 130/150/4
f 108/151/2 113/152/2 119/153/2 116/154/2
f 103/136/1 107/143/1 80/125/1 81/137/1
f 125/155/3 136/156/3 140/157/3 127/158/3
f 128/159/6 139/160/6 146/161/6 133/162/6
f 132/163/23 131/164/23 124/165/23 126/166/23
f 142/167/24 144/168/24 138/169/24 137/170/24
f 87/171/4 85/172/4 110/173/4 115/174/4
f 91/175/6 117/176/6 120/177/6 90/178/6
f 88/179/5 90/180/5 85/181/5 87/182/5
f 121/183/2 123/184/2 114/185/2 111/186/2
f 84/187/6 109/188/6 117/176/6 91/175/6
f 112/189/1 86/190/1 89/191/1 118/192/1
f 90/178/6 120/177/6 110/193/6 85/194/6
f 86/190/5 84/195/5 91/196/5 89/191/5
f 122/197/1 88/179/1 87/182/1 115/198/1
f 116/154/2 119/153/2 123/184/2 121/183/2
f 129/199/25 135/200/25 82/201/25 83/202/25
f 118/192/1 89/191/1 88/179/1 122/197/1
f 136/203/26 138/169/26 141/204/26 140/205/26
f 145/206/27 147/207/27 144/168/27 143/208/27
f 139/209/28 141/204/28 147/207/28 146/210/28
f 135/200/29 132/163/29 80/211/29 82/201/29
f 126/166/30 129/199/30 83/202/30 81/212/30
f 105/123/31 95/140/31 94/130/31 104/129/31
f 103/136/32 97/135/32 96/213/32 102/146/32
f 92/134/31 100/124/31 101/145/31 93/214/31
f 107/143/32 103/136/32 102/146/32 106/132/32
f 100/124/31 105/123/31 104/129/31 101/145/31
f 98/144/32 107/143/32 106/132/32 99/131/32
f 121/183/33 111/186/33 110/193/33 120/177/33
f 119/153/34 113/152/34 112/189/34 118/192/34
f 108/151/33 116/154/33 117/176/33 109/188/33
f 123/184/34 119/153/34 118/192/34 122/197/34
f 116/154/33 121/183/33 120/177/33 117/176/33
f 114/185/34 123/184/34 122/197/34 115/198/34
f 93/214/5 101/145/5 102/146/5 96/213/5
f 124/165/35 125/215/35 126/166/35
f 127/216/36 128/217/36 129/199/36
f 130/218/37 131/164/37 132/163/37
f 133/219/38 134/220/38 135/200/38
f 136/203/39 137/170/39 138/169/39
f 139/209/40 140/205/40 141/204/40
f 142/167/41 143/208/41 144/168/41
f 145/206/42 146/210/42 147/207/42
f 124/221/43 137/222/43 136/156/43 125/155/43
f 139/160/44 128/159/44 127/158/44 140/157/44
f 145/223/45 134/224/45 133/162/45 146/161/45
f 142/225/46 131/226/46 130/150/46 143/149/46
f 131/226/1 142/225/1 137/222/1 124/221/1
f 115/174/4 110/173/4 111/227/4 114/228/4
f 95/119/4 98/118/4 99/229/4 94/230/4
f 144/168/47 147/207/47 90/231/47 88/232/47
f 132/163/48 135/200/48 134/220/48 130/218/48
f 147/207/28 141/204/28 91/233/28 90/231/28
f 135/200/25 129/199/25 128/217/25 133/219/25
f 126/166/23 81/212/23 80/211/23 132/163/23
f 138/169/24 144/168/24 88/232/24 89/234/24
f 141/204/49 138/169/49 89/234/49 91/233/49
f 129/199/50 126/166/50 125/215/50 127/216/50
f 34/58/1 37/57/1 38/235/1 33/236/1
f 40/56/1 35/55/1 36/237/1 39/238/1
f 148/239/6 149/40/6 151/39/6 152/240/6
f 49/241/6 148/239/6 152/240/6 51/242/6
f 29/64/51 46/50/51 45/67/51 30/59/51
f 25/60/52 42/70/52 41/71/52 26/51/52
f 27/52/53 44/74/53 43/43/53 28/75/53
f 31/76/54 48/46/54 47/47/54 32/63/54
f 32/63/5 47/47/5 46/50/5 29/64/5
f 27/52/2 26/51/2 41/71/2 44/74/2
f 28/75/3 43/43/3 48/46/3 31/76/3
f 30/59/4 45/67/4 42/70/4 25/60/4
